<?xml version="1.0" encoding="UTF-8"?>
<svg id="Layer_1"
    xmlns="http://www.w3.org/2000/svg"
    xmlns:xlink="http://www.w3.org/1999/xlink" viewBox="0 0 48 40">
    <defs>
        <style>.cls-1{fill:none;}.cls-2{clip-path:url(#clippath);}.cls-3{fill:#fff;}.cls-4{clip-path:url(#clippath-1);}.cls-5{clip-path:url(#clippath-4);}.cls-6{clip-path:url(#clippath-3);}.cls-7{clip-path:url(#clippath-2);}.cls-8{clip-path:url(#clippath-7);}.cls-9{clip-path:url(#clippath-8);}.cls-10{clip-path:url(#clippath-6);}.cls-11{clip-path:url(#clippath-5);}.cls-12{clip-path:url(#clippath-9);}.cls-13{clip-path:url(#clippath-10);}.cls-14{clip-path:url(#clippath-11);}</style>
        <clipPath id="clippath">
            <path class="cls-1" d="m40.45,28.98c-3.41,4.96-9.24,7.36-15.11,6.36l1.1-.65c.45-.3.6-.9.35-1.4-.25-.5-.9-.6-1.41-.35l-3.21,1.95c-.45.3-.6.9-.35,1.4l1.96,3.2c.2.3.5.5.85.5.2,0,.35-.05.5-.15.45-.3.6-.9.35-1.4l-.7-1.15c1.05.2,2.11.3,3.16.3,5.57,0,10.89-2.7,14.15-7.41.3-.45.2-1.1-.25-1.4-.45-.35-1.05-.25-1.41.2h0Z"/>
        </clipPath>
        <clipPath id="clippath-1">
            <rect class="cls-1" x="-14.86" y="-13.71" width="2194.11" height="1234.19"/>
        </clipPath>
        <clipPath id="clippath-2">
            <path class="cls-1" d="m15.88,11.43c.3,0,.65-.15.85-.45,3.41-4.92,9.29-7.34,15.11-6.38l-1.1.7c-.45.3-.6.9-.35,1.41.2.3.5.5.85.5.2,0,.35-.05.5-.15l3.21-1.96c.45-.3.6-.9.35-1.41l-1.96-3.22c-.3-.45-.9-.6-1.41-.35-.45.3-.6.9-.35,1.41l.75,1.21c-6.68-1.21-13.4,1.51-17.32,7.14-.3.45-.2,1.11.25,1.41.2.1.4.15.6.15h0Z"/>
        </clipPath>
        <clipPath id="clippath-3">
            <rect class="cls-1" x="-14.86" y="-13.71" width="2194.11" height="1234.19"/>
        </clipPath>
        <clipPath id="clippath-4">
            <path class="cls-1" d="m47.84,21.63c-.3-.45-.9-.6-1.4-.35l-1.2.75c1.2-6.67-1.5-13.38-7.1-17.29-.45-.3-1.1-.2-1.4.25-.3.45-.2,1.1.25,1.4,4.9,3.41,7.3,9.27,6.35,15.09l-.65-1.1c-.3-.5-.9-.6-1.4-.35-.45.3-.6.9-.35,1.4l1.95,3.21c.15.25.35.4.6.45.1,0,.15.05.25.05.2,0,.35-.05.5-.15l3.2-1.95c.55-.3.7-.95.4-1.4h0Z"/>
        </clipPath>
        <clipPath id="clippath-5">
            <rect class="cls-1" x="-14.86" y="-13.71" width="2194.11" height="1234.19"/>
        </clipPath>
        <clipPath id="clippath-6">
            <path class="cls-1" d="m24,19.19c.47-.47,1.19-.47,1.61,0l1.3,1.3,3.43-3.44c.47-.47,1.19-.47,1.61,0,.47.47.47,1.2,0,1.61l-4.26,4.27c-.21.21-.52.31-.83.31s-.57-.1-.83-.31l-2.13-2.13c-.36-.47-.36-1.2.1-1.61h0Zm-1.45,9.37l1.61-1.2c.57.26.78.31,1.35.57l.31,1.98c.05.52.52.94,1.04.94h2.29c.52,0,.99-.42,1.04-.94l.31-1.98c.57-.26.78-.31,1.35-.57l1.61,1.2c.42.31,1.04.26,1.4-.1l1.61-1.61c.36-.36.42-.99.1-1.41l-1.19-1.61c.26-.57.31-.78.57-1.35l1.97-.31c.52-.05.93-.52.93-1.04v-2.29c0-.52-.42-.99-.93-1.04l-1.97-.31c-.26-.57-.31-.78-.57-1.35l1.19-1.61c.31-.42.26-1.04-.1-1.41l-1.61-1.61c-.36-.36-.99-.42-1.4-.1l-1.61,1.2c-.62-.26-.78-.31-1.35-.57l-.31-1.93c-.05-.52-.52-.94-1.04-.94h-2.29c-.52,0-.99.36-1.04.94l-.31,1.98c-.57.26-.78.31-1.35.57l-1.61-1.2c-.42-.31-1.04-.26-1.4.1l-1.61,1.61c-.36.36-.42.99-.1,1.41l1.19,1.61c-.26.62-.31.78-.57,1.35l-1.97.26c-.52.05-.93.52-.93,1.04v2.29c0,.52.42.99.93,1.04l1.97.31c.26.57.31.78.57,1.35l-1.19,1.61c-.31.42-.26,1.04.1,1.41l1.61,1.61c.42.36.99.42,1.4.1h0Z"/>
        </clipPath>
        <clipPath id="clippath-7">
            <rect class="cls-1" x="-14.86" y="-13.71" width="2194.11" height="1234.19"/>
        </clipPath>
        <clipPath id="clippath-8">
            <path class="cls-1" d="m14.31,25.14c-1.41,1.1-3.17,1.8-5.14,1.8s-3.73-.65-5.14-1.8c-2.42,1.65-4.03,4.39-4.03,7.49v2.4c0,.85.71,1.55,1.56,1.55h15.16c.86,0,1.56-.7,1.56-1.55v-2.4c0-2.5-1.01-4.79-2.67-6.39-.35-.4-.81-.8-1.31-1.1Z"/>
        </clipPath>
        <clipPath id="clippath-9">
            <rect class="cls-1" x="-14.86" y="-13.71" width="2194.11" height="1234.19"/>
        </clipPath>
        <clipPath id="clippath-10">
            <path class="cls-1" d="m9.14,25.14c3.18,0,5.71-2.53,5.71-5.71s-2.58-5.71-5.71-5.71-5.71,2.53-5.71,5.71c0,3.18,2.53,5.71,5.71,5.71Z"/>
        </clipPath>
        <clipPath id="clippath-11">
            <rect class="cls-1" x="-14.86" y="-13.71" width="2194.11" height="1234.19"/>
        </clipPath>
    </defs>
    <g class="cls-2">
        <g class="cls-4">
            <rect class="cls-3" x="20.44" y="27.29" width="23.11" height="13.85"/>
        </g>
    </g>
    <g class="cls-7">
        <g class="cls-6">
            <rect class="cls-3" x="13.58" y="-1.14" width="23.11" height="13.71"/>
        </g>
    </g>
    <g class="cls-5">
        <g class="cls-11">
            <rect class="cls-3" x="35.3" y="3.3" width="13.84" height="22.98"/>
        </g>
    </g>
    <g class="cls-10">
        <g class="cls-8">
            <rect class="cls-3" x="16" y="8" width="24" height="24"/>
        </g>
    </g>
    <g class="cls-9">
        <g class="cls-12">
            <rect class="cls-3" x="-1.14" y="24" width="20.57" height="13.71"/>
        </g>
    </g>
    <g class="cls-13">
        <g class="cls-14">
            <rect class="cls-3" x="2.29" y="12.57" width="13.71" height="13.71"/>
        </g>
    </g>
</svg>